<?xml version="1.0" standalone="no"?>
<!DOCTYPE svg PUBLIC "-//W3C//DTD SVG 20010904//EN"
 "http://www.w3.org/TR/2001/REC-SVG-20010904/DTD/svg10.dtd">
<svg version="1.0" xmlns="http://www.w3.org/2000/svg"
 width="500.000000pt" height="500.000000pt" viewBox="0 0 500.000000 500.000000"
 preserveAspectRatio="xMidYMid meet">

<g transform="translate(0.000000,500.000000) scale(0.100000,-0.100000)"
fill="#000000" stroke="none">
<path d="M770 2285 l0 -1555 1423 2 1422 3 0 453 c0 248 4 452 9 452 4 0 6 7
2 15 -3 8 -1 15 4 15 12 0 41 60 34 71 -3 5 1 19 8 31 16 31 19 43 23 115 2
38 -2 71 -10 87 -8 14 -11 26 -8 26 3 0 -2 10 -13 22 -14 16 -14 19 -2 10 14
-11 16 -10 13 5 -1 10 -8 17 -14 15 -6 -1 -10 1 -10 5 4 23 -2 43 -11 38 -9
-5 -16 32 -11 59 1 5 -8 6 -19 3 -17 -4 -19 -3 -9 9 6 8 8 14 3 14 -5 0 -3 4
4 9 7 4 16 23 19 41 4 32 4 33 -13 19 -16 -13 -16 -12 0 14 10 15 14 27 8 27
-11 0 -11 18 1 38 8 11 2 16 -15 13 -8 -1 1 28 14 45 11 14 3 91 -11 108 -9
10 -8 15 2 19 8 3 14 22 15 48 1 24 8 46 15 51 9 6 8 8 -3 8 -11 1 -10 4 4 15
11 8 15 15 9 15 -6 0 -9 9 -6 20 3 11 9 18 13 15 4 -3 11 2 14 11 4 10 2 13
-6 8 -14 -9 -2 45 16 66 7 8 13 42 14 75 2 52 -1 64 -23 88 -14 16 -29 26 -33
23 -4 -2 -9 4 -9 15 -1 10 3 19 8 19 6 0 3 7 -5 16 -11 10 -14 24 -10 41 4 16
3 24 -3 20 -12 -7 -10 29 2 40 4 5 5 2 0 -6 -6 -10 -4 -12 4 -7 8 6 6 18 -11
44 -18 30 -19 34 -4 22 16 -13 18 -12 14 10 -1 14 -11 34 -20 44 -20 22 -13
43 8 25 17 -14 18 -2 4 35 -6 17 -6 27 1 32 8 4 7 9 -2 15 -9 5 -10 9 -2 9 13
0 11 58 -3 68 -15 12 -15 32 1 32 21 0 15 42 -10 70 -14 16 -16 21 -5 18 10
-2 15 5 14 20 -1 12 2 22 7 22 9 0 8 27 -2 45 -3 6 -5 58 -4 116 l0 106 -125
7 c-69 3 -709 6 -1422 6 l-1298 0 0 -1555z m2328 863 c32 -32 -18 -87 -53 -58
-28 23 -12 70 25 70 9 0 21 -5 28 -12z m350 -61 c54 -26 76 -146 49 -272 -8
-38 -13 -73 -10 -77 2 -5 17 -8 32 -8 43 0 82 54 95 134 7 38 19 50 45 41 23
-7 23 -18 -6 -108 -27 -87 -94 -137 -163 -123 -26 5 -32 1 -51 -34 -29 -52
-85 -90 -131 -90 -28 0 -42 7 -63 31 -14 17 -27 30 -29 28 -2 -2 -11 -20 -21
-39 -28 -55 -71 -106 -124 -144 -44 -33 -48 -39 -59 -100 -24 -127 -73 -198
-146 -211 -73 -14 -136 54 -121 131 9 50 61 99 154 144 64 31 71 37 71 63 0
30 0 30 -21 11 -30 -27 -97 -25 -117 4 l-14 22 -40 -45 c-55 -62 -130 -73
-177 -26 -19 19 -20 19 -46 -21 -45 -68 -123 -83 -157 -28 -17 27 -20 26 -41
-12 -26 -47 -65 -73 -110 -73 -32 0 -44 6 -66 33 l-27 33 -17 -40 c-37 -83
-127 -108 -171 -48 -19 27 -21 40 -19 178 2 148 2 149 -20 149 -12 0 -38 3
-58 6 l-36 6 -23 -120 c-23 -124 -37 -155 -60 -127 -10 12 -8 39 11 136 21
116 21 122 4 131 -57 33 -78 86 -48 126 45 61 123 24 123 -59 l0 -37 68 -7
c99 -9 98 -8 92 -106 -8 -146 -6 -237 7 -250 7 -7 22 -9 38 -5 37 9 68 85 89
216 21 132 41 204 72 256 39 68 99 95 158 70 34 -14 35 -14 45 15 10 28 34 39
46 20 3 -5 -1 -69 -10 -143 -29 -266 -26 -328 20 -328 55 0 85 87 116 335 21
171 35 213 61 187 9 -9 9 -35 0 -114 -7 -57 -15 -151 -18 -209 -7 -101 -6
-107 15 -128 17 -17 29 -21 49 -16 74 19 97 81 127 355 18 161 31 199 59 170
11 -13 11 -35 0 -140 -17 -163 -22 -269 -14 -300 5 -20 12 -25 35 -25 26 0 33
7 57 55 22 44 32 88 48 215 11 88 23 179 26 203 4 36 8 42 30 42 29 0 30 -8
10 -175 -15 -122 -19 -167 -32 -310 l-6 -80 45 43 c69 68 114 176 132 317 19
157 69 255 143 281 38 13 59 11 100 -9z m-1809 -156 c35 -35 44 -95 37 -246
-3 -77 -8 -156 -11 -175 -27 -202 -41 -418 -31 -472 9 -49 39 -78 81 -78 19 0
37 -5 40 -10 11 -18 -16 -40 -47 -40 -46 0 -84 26 -107 73 -25 51 -27 150 -7
344 l12 122 -26 -5 c-14 -3 -64 -16 -110 -28 l-85 -22 -31 -90 c-75 -220 -147
-304 -262 -304 -88 0 -135 36 -153 115 -9 40 -9 60 1 89 25 78 106 137 166
122 39 -10 27 -39 -19 -47 -62 -10 -107 -66 -107 -132 0 -90 108 -130 195 -73
35 23 84 108 120 209 l34 94 -37 -1 c-30 -1 -37 2 -37 19 0 14 11 22 45 30
l44 11 49 184 c54 210 85 283 131 311 40 25 91 24 115 0z m1977 -387 c1 -9 0
-13 -4 -10 -3 4 -7 14 -8 22 -1 9 0 13 4 10 3 -4 7 -14 8 -22z m-18 -592 c-1
-15 4 -37 10 -49 17 -32 15 -57 -8 -78 -18 -16 -26 -17 -53 -8 -39 13 -70 11
-91 -6 -9 -8 -26 -11 -40 -7 -14 3 -28 2 -31 -4 -8 -13 -62 -13 -70 1 -5 6
-11 4 -19 -7 -9 -11 -21 -15 -34 -11 -12 3 -25 1 -28 -4 -7 -12 -44 -12 -44 1
0 5 -13 1 -30 -8 -24 -14 -33 -15 -49 -5 -15 10 -22 9 -31 -2 -15 -18 -39 -19
-45 -2 -3 7 -1 34 4 60 16 88 -30 70 -51 -21 -7 -29 -17 -52 -21 -52 -5 0 -7
10 -4 23 3 12 9 39 13 60 6 35 4 39 -12 35 -13 -2 -25 -22 -39 -63 -22 -69
-23 -70 -30 -63 -3 2 -1 18 4 34 5 16 12 45 15 65 5 30 12 38 34 42 15 3 31 2
36 -3 5 -5 16 -4 26 2 10 6 25 8 35 4 15 -5 16 -14 10 -62 -8 -70 12 -71 35
-3 22 65 35 83 62 84 32 2 51 15 65 45 l12 25 0 -27 c1 -16 7 -28 14 -28 7 -1
4 -6 -6 -15 -10 -7 -23 -31 -28 -52 -12 -53 -11 -63 5 -63 14 0 24 21 46 93
17 55 24 38 11 -24 -13 -58 0 -91 18 -48 48 117 49 119 75 119 22 0 26 -4 25
-27 -2 -24 -2 -25 -6 -5 -5 27 -15 28 -35 5 -23 -26 -30 -79 -13 -93 15 -13
55 2 55 21 0 26 44 108 60 112 32 8 43 -8 38 -57 -6 -50 6 -60 24 -21 13 30
56 45 69 24 11 -18 3 -25 -14 -11 -17 15 -27 6 -27 -25 0 -23 14 -29 44 -17
20 8 21 63 2 70 -20 7 -29 53 -15 70 16 19 30 8 27 -24z m-423 -2 c-10 -11
-23 -20 -28 -20 -6 0 -2 9 8 20 10 11 23 20 28 20 6 0 2 -9 -8 -20z m115 0 c0
-5 -4 -10 -10 -10 -5 0 -10 5 -10 10 0 6 5 10 10 10 6 0 10 -4 10 -10z m-642
-32 c22 -22 14 -65 -19 -92 -17 -14 -39 -26 -50 -26 -46 0 -50 -94 -4 -106 39
-10 71 18 95 83 25 68 36 83 61 83 23 0 32 -29 23 -75 -8 -43 9 -47 31 -6 8
16 20 31 27 34 16 5 38 -2 38 -14 0 -4 -7 -6 -16 -2 -16 6 -34 -12 -34 -34 0
-17 39 -26 55 -13 20 17 19 56 -2 72 -24 18 -24 62 1 66 15 3 18 0 12 -21 -4
-16 0 -37 11 -55 16 -28 16 -31 0 -56 -12 -18 -26 -26 -47 -26 -16 0 -31 4
-34 9 -8 12 -57 1 -78 -16 -9 -8 -25 -12 -36 -9 -12 4 -25 -1 -37 -14 -12 -13
-31 -20 -56 -20 -45 0 -59 19 -59 78 0 32 -5 41 -25 50 -21 10 -25 19 -25 51
0 22 4 42 9 45 5 4 7 -11 4 -33 -5 -33 -2 -41 17 -51 12 -6 23 -10 24 -8 1 2
11 22 21 46 27 61 66 87 93 60z"/>
<path d="M3335 3024 c-48 -51 -68 -128 -69 -254 -1 -96 2 -121 17 -143 28 -44
73 -23 115 55 19 34 20 39 6 84 -8 26 -12 56 -8 66 6 20 40 24 47 6 3 -7 6 27
6 75 1 65 -3 94 -15 112 -22 34 -67 33 -99 -1z"/>
<path d="M2271 2761 c-48 -48 -75 -145 -75 -276 -1 -112 20 -159 64 -148 54
14 92 105 115 274 14 108 14 115 -4 139 -24 33 -73 38 -100 11z"/>
<path d="M1755 2720 c-4 -7 2 -22 14 -34 l22 -21 -3 29 c-3 31 -21 45 -33 26z"/>
<path d="M2904 2332 c-72 -38 -92 -55 -104 -86 -15 -40 9 -76 51 -76 55 0 119
100 107 168 -3 20 -4 20 -54 -6z"/>
<path d="M1535 2874 c-27 -29 -59 -120 -100 -286 -14 -57 -28 -110 -31 -119
-4 -14 9 -13 100 9 85 21 106 30 110 46 3 12 9 89 12 171 4 115 2 156 -8 175
-19 35 -52 37 -83 4z"/>
<path d="M3436 1908 c-17 -24 -22 -98 -7 -98 12 0 32 26 29 36 -1 5 4 19 11
32 13 24 9 52 -8 52 -5 0 -17 -10 -25 -22z"/>
<path d="M3172 1876 c-6 -14 -23 -32 -37 -42 -34 -22 -34 -54 0 -54 21 0 30 9
45 43 21 45 25 77 12 77 -5 0 -14 -11 -20 -24z"/>
<path d="M3122 1865 c-14 -29 -2 -33 21 -7 20 22 21 32 4 32 -8 0 -19 -11 -25
-25z"/>
<path d="M2593 1898 c-13 -16 -43 -75 -43 -84 0 -3 12 -3 28 1 37 9 73 45 70
70 -3 23 -40 32 -55 13z"/>
<path d="M2701 1822 c-5 -9 -12 -34 -16 -55 -6 -33 -5 -37 13 -37 16 0 24 10
31 38 6 20 11 45 11 55 0 22 -27 22 -39 -1z"/>
</g>
</svg>
