<?xml version="1.0" standalone="no"?>
<!DOCTYPE svg PUBLIC "-//W3C//DTD SVG 20010904//EN"
 "http://www.w3.org/TR/2001/REC-SVG-20010904/DTD/svg10.dtd">
<svg version="1.0" xmlns="http://www.w3.org/2000/svg"
 width="225.000000pt" height="150.000000pt" viewBox="0 0 225.000000 150.000000"
 preserveAspectRatio="xMidYMid meet">

<g transform="translate(0.000000,150.000000) scale(0.100000,-0.100000)"
fill="#000000" stroke="none">
<path d="M0 901 l0 -600 48 -3 c46 -3 47 -2 79 46 39 60 127 116 181 116 20 0
42 4 47 8 6 4 10 41 11 82 1 114 18 168 76 240 39 49 48 67 44 86 -8 30 -32
41 -57 26 -10 -7 -25 -12 -33 -12 -16 0 -74 82 -82 117 -6 23 -60 63 -84 63
-7 0 -37 12 -67 26 -49 24 -53 29 -39 42 9 9 40 17 76 20 55 4 61 7 66 31 11
49 17 66 46 129 16 35 45 81 65 102 25 29 33 45 28 60 -6 19 -14 20 -206 20
l-199 0 0 -599z"/>
<path d="M1581 1441 c-21 -14 -4 -31 32 -32 32 -1 32 -1 -11 -16 -23 -8 -40
-18 -38 -21 2 -4 1 -28 -3 -54 -9 -56 0 -68 47 -68 23 0 32 -4 29 -12 -2 -7
-12 -12 -21 -10 -10 2 -30 -3 -47 -10 -23 -10 -29 -19 -29 -44 0 -18 -8 -42
-18 -55 l-19 -22 -2 29 c-5 79 -4 79 -38 82 -29 3 -33 7 -33 34 0 25 3 29 20
25 26 -7 35 9 31 58 -3 48 -1 45 -44 55 l-34 7 -7 -75 c-11 -129 -10 -132 24
-139 22 -4 29 -10 26 -22 -3 -9 -8 -33 -12 -53 -6 -37 -5 -38 22 -38 16 0 35
4 41 8 17 11 139 -10 154 -25 20 -20 22 -56 4 -49 -19 7 -19 -14 0 -40 20 -26
19 -63 -5 -116 -10 -24 -21 -67 -24 -94 -2 -27 -7 -82 -11 -121 -9 -83 -7 -84
60 -50 l44 22 3 150 c1 83 1 168 0 190 -8 132 -8 129 13 133 11 2 23 7 27 10
5 6 -4 216 -15 342 -2 24 -5 25 -77 28 -41 1 -81 -2 -89 -7z"/>
<path d="M1418 1433 c-10 -2 -18 -11 -18 -18 0 -11 8 -13 33 -8 39 7 41 9 32
22 -6 11 -17 12 -47 4z"/>
<path d="M669 1213 c0 -5 0 -33 1 -63 1 -30 2 -98 3 -150 l2 -95 28 -3 27 -3
0 84 c0 46 -3 118 -6 160 -7 72 -8 77 -30 77 -13 0 -24 -3 -25 -7z"/>
<path d="M1170 1155 c-14 -17 -9 -100 8 -117 7 -7 9 2 5 31 -5 35 -3 41 13 42
16 0 15 2 -5 10 -19 8 -21 12 -11 24 7 9 11 18 8 20 -3 3 -11 -1 -18 -10z"/>
<path d="M2169 1073 c-20 -24 -76 -132 -93 -180 -7 -21 -29 -71 -47 -111 -29
-62 -39 -75 -73 -90 -21 -9 -64 -29 -95 -43 l-56 -26 48 -7 c59 -9 130 -55
147 -96 17 -40 5 -109 -25 -151 -14 -18 -25 -36 -25 -39 0 -3 19 -7 43 -8 104
-5 151 -20 141 -46 -3 -9 5 -15 23 -19 36 -7 45 0 38 25 -4 12 0 27 10 38 15
16 16 53 16 332 0 368 -13 468 -52 421z"/>
<path d="M738 872 c-32 -4 -37 -27 -9 -42 30 -15 38 -12 43 15 6 29 3 32 -34
27z"/>
<path d="M1170 871 c0 -26 31 -38 86 -35 67 5 72 8 51 29 -17 17 -137 22 -137
6z m47 -7 c-3 -3 -12 -4 -19 -1 -8 3 -5 6 6 6 11 1 17 -2 13 -5z m70 0 c-3 -3
-12 -4 -19 -1 -8 3 -5 6 6 6 11 1 17 -2 13 -5z"/>
<path d="M1220 810 c0 -5 6 -10 14 -10 8 0 18 5 21 10 3 6 -3 10 -14 10 -12 0
-21 -4 -21 -10z"/>
<path d="M795 777 c-81 -14 -112 -32 -120 -67 -7 -34 19 -105 36 -95 5 4 12
-1 15 -9 3 -9 15 -16 25 -16 13 0 19 -7 19 -21 0 -11 5 -30 12 -42 18 -35 17
-80 -3 -109 -11 -14 -19 -31 -19 -37 0 -18 39 -91 49 -91 23 0 62 83 82 172
l22 97 -23 110 c-12 61 -28 112 -34 113 -6 2 -33 0 -61 -5z"/>
<path d="M1323 770 c-4 -5 -17 -10 -28 -13 -13 -3 -10 -5 10 -5 17 0 39 3 49
7 19 7 19 8 -1 13 -12 3 -25 2 -30 -2z"/>
<path d="M1402 665 c1 -66 3 -97 5 -70 2 28 8 54 14 59 5 6 9 17 9 25 0 14 -1
14 -10 1 -7 -12 -10 -8 -10 15 0 23 3 27 10 15 8 -12 10 -10 10 11 0 14 -7 34
-15 45 -13 17 -14 6 -13 -101z"/>
<path d="M443 738 c-17 -18 -35 -49 -41 -68 -30 -96 -26 -200 6 -200 24 0 40
42 47 125 7 78 11 99 27 133 20 40 -4 46 -39 10z"/>
<path d="M1022 543 c1 -109 3 -175 5 -148 6 75 19 74 15 -1 -2 -35 -8 -62 -13
-58 -5 3 -9 -2 -9 -10 0 -25 20 -29 58 -13 49 19 125 37 162 37 38 0 38 2 0
166 -16 71 -30 147 -30 170 l0 40 -52 0 c-29 0 -72 3 -95 7 l-43 7 2 -197z
m178 111 c0 -7 -7 -19 -15 -28 -9 -9 -16 -36 -16 -73 l-2 -58 -7 65 c-10 80
-5 106 21 106 10 0 19 -6 19 -12z m-151 -138 c1 -27 -2 -46 -6 -42 -4 4 -8 35
-9 69 -1 40 1 55 6 42 5 -11 9 -42 9 -69z"/>
<path d="M1241 698 c0 -18 3 -26 6 -18 3 8 10 23 15 33 6 12 5 17 -7 17 -10 0
-15 -10 -14 -32z"/>
<path d="M614 692 c-6 -4 -13 -15 -17 -24 -3 -10 -15 -18 -25 -18 -24 0 -42
-19 -42 -46 0 -28 21 -36 54 -21 23 11 65 67 50 67 -3 0 -1 7 6 15 19 23 -1
44 -26 27z"/>
<path d="M476 653 c-12 -12 -6 -33 9 -33 8 0 15 6 15 14 0 17 -14 28 -24 19z"/>
<path d="M1251 638 c-1 -28 20 -149 39 -217 6 -25 17 -41 26 -41 8 0 17 -7 20
-15 9 -23 34 -18 34 7 0 34 -21 251 -26 267 -4 11 -8 10 -23 -4 -23 -20 -57
-13 -64 13 -3 10 -5 6 -6 -10z"/>
<path d="M1421 422 c-1 -100 2 -151 9 -147 12 7 12 224 0 270 -5 18 -8 -31 -9
-123z"/>
<path d="M400 426 c0 -2 7 -7 16 -10 8 -3 12 -2 9 4 -6 10 -25 14 -25 6z"/>
<path d="M1643 348 c5 -14 71 -12 97 2 10 6 -4 9 -43 10 -43 0 -57 -3 -54 -12z"/>
<path d="M1789 348 c-8 -17 -3 -48 9 -53 20 -7 21 -5 15 28 -4 22 -18 36 -24
25z"/>
<path d="M1402 305 c0 -16 2 -22 5 -12 2 9 2 23 0 30 -3 6 -5 -1 -5 -18z"/>
<path d="M1668 302 c14 -34 40 -64 51 -57 17 10 13 33 -9 55 -26 26 -52 27
-42 2z"/>
<path d="M485 270 c3 -5 11 -10 16 -10 6 0 7 5 4 10 -3 6 -11 10 -16 10 -6 0
-7 -4 -4 -10z"/>
<path d="M1770 238 l-25 -11 23 -5 c28 -4 52 4 52 18 0 13 -18 12 -50 -2z"/>
<path d="M330 220 c0 -14 17 -21 34 -14 24 9 19 19 -9 20 -14 1 -25 -2 -25 -6z"/>
<path d="M279 207 c8 -10 9 -17 3 -17 -6 0 -14 5 -17 10 -8 13 -25 3 -25 -16
0 -18 56 -19 63 -1 3 7 -5 19 -16 27 -20 12 -21 12 -8 -3z"/>
<path d="M1168 183 c23 -2 59 -2 80 0 20 2 1 4 -43 4 -44 0 -61 -2 -37 -4z"/>
<path d="M1330 150 c0 -5 11 -10 25 -10 14 0 25 5 25 10 0 6 -11 10 -25 10
-14 0 -25 -4 -25 -10z"/>
<path d="M1020 110 c0 -5 5 -10 11 -10 5 0 7 5 4 10 -3 6 -8 10 -11 10 -2 0
-4 -4 -4 -10z"/>
</g>
</svg>
