<?xml version="1.0" standalone="no"?>
<!DOCTYPE svg PUBLIC "-//W3C//DTD SVG 20010904//EN"
 "http://www.w3.org/TR/2001/REC-SVG-20010904/DTD/svg10.dtd">
<svg version="1.0" xmlns="http://www.w3.org/2000/svg"
 width="225.000000pt" height="150.000000pt" viewBox="0 0 225.000000 150.000000"
 preserveAspectRatio="xMidYMid meet">

<g transform="translate(0.000000,150.000000) scale(0.100000,-0.100000)"
fill="#000000" stroke="none">
<path d="M1020 1298 c-48 -33 -80 -83 -80 -128 0 -49 26 -72 85 -74 25 0 45
-5 45 -9 0 -5 5 -5 10 -2 6 3 10 2 10 -3 0 -12 -24 -22 -51 -22 -21 0 -25 -15
-7 -26 6 -4 14 -2 16 4 5 17 22 15 22 -2 0 -8 6 -17 13 -20 6 -2 3 -4 -8 -4
-34 2 -83 -14 -89 -28 -7 -17 6 -18 22 -2 9 9 12 9 12 -1 0 -11 3 -11 15 -1
11 9 22 10 38 3 25 -10 127 -5 127 7 0 4 -18 10 -41 13 -45 6 -59 14 -42 25 8
5 11 27 9 60 -4 52 -4 52 25 52 22 0 29 -5 29 -20 0 -27 50 -27 74 -1 16 17
16 19 -1 26 -10 5 -22 9 -28 9 -5 1 -11 16 -13 34 -3 27 1 35 17 39 28 7 27
14 -14 53 -31 30 -43 35 -98 38 -53 3 -67 0 -97 -20z m170 -43 c20 -24 6 -28
-15 -5 -10 11 -13 20 -8 20 6 0 16 -7 23 -15z m-18 -19 c4 -6 8 -28 8 -48 0
-30 -4 -38 -17 -38 -28 0 -47 16 -40 34 4 9 2 16 -4 16 -6 0 -7 5 -3 12 4 6
-1 17 -12 25 -17 13 -15 14 21 12 22 -2 43 -8 47 -13z m-98 -10 c-3 -8 2 -16
13 -19 10 -3 4 -5 -14 -6 -24 -1 -33 3 -33 15 0 8 4 13 9 9 5 -3 12 -1 16 5 9
15 15 12 9 -4z"/>
<path d="M830 1030 c-14 -4 -44 -18 -67 -29 -23 -12 -47 -21 -53 -21 -6 0 -9
-4 -6 -9 4 -5 -3 -7 -14 -4 -11 3 -20 1 -20 -5 0 -6 -9 -14 -21 -17 -11 -4
-18 -9 -15 -12 3 -3 -1 -12 -9 -20 -21 -21 -18 -62 6 -103 24 -39 54 -71 62
-64 8 9 57 -19 57 -33 0 -16 12 -17 28 -1 9 9 12 9 12 0 0 -7 6 -12 14 -12 13
0 43 57 38 73 -1 4 2 7 6 7 5 0 9 6 9 13 0 7 16 46 37 86 35 69 36 74 20 92
-9 10 -14 27 -11 39 3 13 0 20 -8 20 -7 0 -19 2 -27 4 -7 2 -24 1 -38 -4z
m-20 -224 c0 -2 -8 -10 -17 -17 -16 -13 -17 -12 -4 4 13 16 21 21 21 13z m5
-46 c-23 -44 -30 -31 -8 15 10 20 19 32 21 26 2 -5 -4 -24 -13 -41z"/>
<path d="M975 1020 c3 -5 8 -10 11 -10 2 0 4 5 4 10 0 6 -5 10 -11 10 -5 0 -7
-4 -4 -10z"/>
<path d="M1030 878 c0 -4 14 -8 30 -8 17 0 30 2 30 4 0 2 -13 6 -30 8 -16 3
-30 1 -30 -4z"/>
<path d="M961 704 c0 -11 3 -14 6 -6 3 7 2 16 -1 19 -3 4 -6 -2 -5 -13z"/>
<path d="M1035 710 c-3 -5 -1 -10 4 -10 6 0 11 5 11 10 0 6 -2 10 -4 10 -3 0
-8 -4 -11 -10z"/>
<path d="M1124 709 c2 -15 20 -13 24 3 3 10 2 10 -6 -1 -7 -9 -11 -10 -15 -2
-4 7 -5 8 -3 0z"/>
<path d="M1211 704 c0 -11 3 -14 6 -6 3 7 2 16 -1 19 -3 4 -6 -2 -5 -13z"/>
<path d="M1175 700 c3 -5 8 -10 11 -10 2 0 4 5 4 10 0 6 -5 10 -11 10 -5 0 -7
-4 -4 -10z"/>
<path d="M1366 658 c-13 -104 -29 -193 -33 -181 -2 6 1 38 6 69 6 32 10 69 10
83 -2 47 -19 -49 -23 -134 -4 -72 -3 -78 10 -60 17 23 64 171 64 202 0 11 -6
33 -14 48 -14 26 -14 26 -20 -27z"/>
<path d="M1443 668 c-7 -15 -15 -51 -19 -80 -4 -29 -11 -61 -16 -71 -16 -32
-58 -147 -53 -147 21 0 109 252 103 298 l-3 27 -12 -27z"/>
<path d="M750 637 c0 -3 7 -18 15 -33 11 -21 15 -24 15 -11 0 10 -7 25 -15 33
-8 9 -15 13 -15 11z"/>
<path d="M833 605 c0 -22 2 -30 4 -17 2 12 2 30 0 40 -3 9 -5 -1 -4 -23z"/>
<path d="M1270 310 c-11 -22 -18 -40 -15 -40 2 0 14 18 25 40 11 22 18 40 15
40 -2 0 -14 -18 -25 -40z"/>
</g>
</svg>
