<?xml version="1.0" standalone="no"?>
<!DOCTYPE svg PUBLIC "-//W3C//DTD SVG 20010904//EN"
 "http://www.w3.org/TR/2001/REC-SVG-20010904/DTD/svg10.dtd">
<svg version="1.0" xmlns="http://www.w3.org/2000/svg"
 width="225.000000pt" height="169.000000pt" viewBox="0 0 225.000000 169.000000"
 preserveAspectRatio="xMidYMid meet">

<g transform="translate(0.000000,169.000000) scale(0.100000,-0.100000)"
fill="#000000" stroke="none">
<path d="M2 1408 c0 -156 3 -272 5 -259 4 21 9 23 41 17 23 -3 32 -2 23 3 -9
6 3 11 38 16 43 6 56 4 73 -11 31 -29 81 -94 75 -100 -4 -4 -239 -54 -254 -54
-2 0 -3 -16 -3 -36 0 -34 2 -36 26 -30 54 14 84 18 84 13 0 -4 -19 -11 -43
-17 -72 -19 -74 -20 -57 -30 8 -6 22 -9 30 -9 10 0 8 3 -5 8 -14 6 -5 8 30 8
52 0 153 18 164 28 3 4 -12 4 -34 1 -40 -5 -40 -5 8 10 38 12 51 13 63 3 10
-8 11 -15 4 -24 -15 -19 -98 -39 -157 -39 -30 0 -47 -4 -40 -8 7 -5 -8 -6 -33
-3 -33 4 -40 3 -25 -4 17 -8 18 -10 3 -10 -17 -1 -18 -29 -18 -441 l0 -440
560 0 560 0 1 23 c1 12 2 29 3 39 1 9 5 20 10 25 5 4 6 -12 2 -39 l-7 -48 383
0 383 1 -78 41 c-91 48 -191 141 -226 209 -26 52 -42 59 -140 59 -62 0 -209
23 -286 46 -27 8 -84 31 -127 52 -42 20 -74 34 -72 30 2 -3 1 -8 -3 -11 -5 -2
-3 -3 3 -1 6 1 11 -4 11 -12 0 -17 -38 4 -93 53 -35 31 -35 32 -5 11 18 -13
41 -29 51 -36 16 -12 18 -11 15 5 -1 10 -8 17 -15 15 -7 -2 -30 13 -50 33 -20
19 -40 32 -45 28 -4 -5 -5 -3 -2 3 4 7 -1 36 -11 66 -21 62 -16 93 22 143 36
46 139 112 216 136 76 24 192 50 198 45 4 -5 -19 -12 -68 -21 -141 -26 -293
-108 -332 -178 -8 -16 -7 -17 11 -7 12 6 21 15 21 21 0 10 88 69 103 69 15 0
-84 -94 -125 -119 -26 -15 -38 -30 -37 -44 l0 -22 9 22 c12 30 46 48 54 28 9
-24 -4 -46 -24 -40 -9 3 -22 -1 -29 -9 -16 -19 14 -50 42 -42 13 3 30 -8 58
-37 21 -23 39 -37 39 -31 0 6 -7 17 -15 24 -8 7 -15 17 -15 23 0 6 3 7 7 4 3
-4 12 -2 19 4 8 7 14 6 20 -2 5 -8 3 -10 -7 -4 -8 4 -1 -6 15 -23 30 -32 43
-41 31 -22 -3 6 -1 10 5 10 6 0 2 9 -8 20 -24 26 -23 97 2 134 27 42 93 84
170 109 64 20 91 22 269 22 185 0 239 6 164 20 -17 3 -68 13 -112 22 -261 54
-535 -37 -564 -188 -5 -24 -9 -34 -10 -21 -1 13 -5 20 -11 17 -5 -3 -10 2 -11
12 -1 13 -3 11 -9 -7 l-9 -25 2 28 c1 15 5 26 8 25 4 -2 16 6 28 16 15 13 18
22 10 27 -8 5 -8 8 0 13 6 4 11 2 11 -5 0 -7 11 -2 24 10 14 13 23 31 21 42
-2 10 -1 18 3 17 4 -1 22 6 41 16 18 10 30 13 27 7 -4 -6 -5 -11 -2 -11 13 0
137 51 195 80 l64 33 110 -7 110 -7 -27 22 c-42 33 -24 33 40 1 124 -62 235
-79 379 -59 35 5 43 4 28 -3 -13 -5 -45 -12 -73 -16 -56 -7 -58 -18 -5 -28 81
-16 210 -114 241 -186 14 -32 26 -42 61 -54 l43 -15 0 269 c0 186 -3 271 -11
276 -8 4 -9 0 -4 -15 3 -11 2 -21 -3 -21 -12 0 -52 44 -52 57 0 11 -24 18
-180 50 -124 25 -394 24 -470 -3 -44 -15 -56 -24 -58 -43 -6 -43 21 -52 76
-24 38 19 71 25 153 30 121 7 310 -10 401 -36 62 -18 63 -19 60 -51 -2 -18 1
-30 6 -27 14 9 7 -29 -9 -49 -26 -32 -92 -74 -116 -74 -14 0 -21 -4 -18 -10 4
-6 -29 -10 -90 -10 -73 0 -96 3 -92 13 2 7 21 12 44 12 23 0 39 3 36 8 -2 4
-16 7 -31 7 -15 1 -54 7 -87 14 -45 11 -53 14 -30 16 29 2 30 2 5 9 -14 5 -29
4 -34 -1 -16 -13 -46 -9 -52 7 -8 20 -34 1 -34 -25 0 -9 -2 -19 -5 -22 -3 -2
-52 19 -110 47 -119 59 -201 131 -189 168 4 13 2 17 -5 13 -6 -4 -18 8 -28 29
-15 31 -15 37 -3 45 8 6 25 10 38 10 12 0 22 5 22 11 0 8 4 8 14 0 11 -9 31
-10 66 -1 3 0 -8 7 -24 13 l-29 13 26 21 c27 21 36 58 17 65 -7 2 -5 15 5 35
11 22 13 38 6 56 -18 46 -59 48 -141 7 -33 -16 -62 -30 -66 -30 -17 0 12 163
41 233 7 16 -28 17 -644 17 l-651 0 2 -282z m1041 235 c-7 -2 -19 -2 -25 0 -7
3 -2 5 12 5 14 0 19 -2 13 -5z m-46 -9 c-3 -3 -12 -4 -19 -1 -8 3 -5 6 6 6 11
1 17 -2 13 -5z m-60 -10 c-3 -3 -12 -4 -19 -1 -8 3 -5 6 6 6 11 1 17 -2 13 -5z
m-44 -11 c-7 -2 -19 -2 -25 0 -7 3 -2 5 12 5 14 0 19 -2 13 -5z m-66 -9 c-3
-3 -12 -4 -19 -1 -8 3 -5 6 6 6 11 1 17 -2 13 -5z m-194 -31 c-7 -2 -21 -2
-30 0 -10 3 -4 5 12 5 17 0 24 -2 18 -5z m-65 -10 c-10 -2 -28 -2 -40 0 -13 2
-5 4 17 4 22 1 32 -1 23 -4z m-165 -20 c-7 -2 -19 -2 -25 0 -7 3 -2 5 12 5 14
0 19 -2 13 -5z m757 -117 l0 -64 -41 -7 c-40 -7 -43 -6 -97 49 -31 30 -53 58
-50 61 8 9 94 22 146 24 l42 1 0 -64z m-164 -18 c30 -28 52 -54 49 -57 -4 -3
-61 -15 -128 -28 l-121 -22 -36 26 c-72 54 -101 83 -88 88 14 5 235 43 256 44
7 1 38 -22 68 -51z m-652 -77 c11 -17 125 -91 141 -91 8 0 15 -4 15 -10 0 -20
-54 -3 -138 45 -28 15 -54 50 -45 59 9 9 21 7 27 -3z m809 -28 c-7 -2 -19 -2
-25 0 -7 3 -2 5 12 5 14 0 19 -2 13 -5z m-60 -10 c-7 -2 -19 -2 -25 0 -7 3 -2
5 12 5 14 0 19 -2 13 -5z m-128 -24 c-49 -10 -101 -18 -115 -17 -14 0 16 8 65
18 50 10 101 18 115 18 14 0 -15 -8 -65 -19z m-755 -52 c0 -7 7 -25 16 -42
l15 -30 -32 32 c-21 20 -30 37 -25 48 6 17 26 12 26 -8z m-47 -4 c-7 -2 -21
-2 -30 0 -10 3 -4 5 12 5 17 0 24 -2 18 -5z m-56 -9 c-3 -3 -12 -4 -19 -1 -8
3 -5 6 6 6 11 1 17 -2 13 -5z m447 -38 c21 -7 35 -16 30 -19 -5 -3 -25 3 -44
14 -42 22 -38 23 14 5z m483 -2 c-3 -3 -12 -4 -19 -1 -8 3 -5 6 6 6 11 1 17
-2 13 -5z m-389 -11 c-10 -2 -26 -2 -35 0 -10 3 -2 5 17 5 19 0 27 -2 18 -5z
m-369 -57 c-2 -2 -13 8 -23 22 l-19 27 24 -22 c12 -12 21 -24 18 -27z m21 -36
c0 -5 -7 -7 -15 -4 -8 4 -15 8 -15 10 0 2 7 4 15 4 8 0 15 -4 15 -10z m1191
-77 c13 -17 13 -17 -6 -3 -11 8 -22 16 -24 17 -2 2 0 3 6 3 6 0 17 -8 24 -17z
m-1404 -49 c-3 -3 -12 -4 -19 -1 -8 3 -5 6 6 6 11 1 17 -2 13 -5z m2122 -10
c-14 -18 -118 -68 -125 -61 -3 3 103 62 135 75 2 1 -3 -5 -10 -14z m-1209
-159 c-7 -8 -17 -15 -22 -15 -6 0 -5 7 2 15 7 8 17 15 22 15 6 0 5 -7 -2 -15z
m21 -232 c13 -16 12 -17 -3 -4 -10 7 -18 15 -18 17 0 8 8 3 21 -13z m-257 -58
c-4 -8 -8 -15 -10 -15 -2 0 -4 7 -4 15 0 8 4 15 10 15 5 0 7 -7 4 -15z m286
-97 c0 -4 -13 -3 -28 3 -16 5 -29 16 -29 23 0 10 7 10 29 -3 15 -9 28 -19 28
-23z m-270 8 c0 -3 -4 -8 -10 -11 -5 -3 -10 -1 -10 4 0 6 5 11 10 11 6 0 10
-2 10 -4z m367 -41 c43 -14 127 -33 187 -43 126 -21 131 -34 8 -19 -72 9 -88
8 -119 -7 -26 -12 -33 -20 -25 -28 13 -13 75 9 66 23 -3 5 0 9 5 9 18 0 12
-18 -9 -33 -20 -14 -18 -15 22 -25 24 -6 67 -16 96 -23 29 -6 52 -13 50 -14
-14 -14 -263 36 -337 67 -51 22 -48 34 6 22 21 -4 43 -8 48 -8 6 -1 13 -5 17
-11 4 -6 18 1 35 18 22 22 24 27 10 27 -9 0 -17 -4 -17 -10 0 -5 -4 -10 -10
-10 -5 0 -7 6 -4 14 3 9 -14 20 -55 36 -34 12 -61 26 -61 31 0 12 -2 12 87
-16z m413 -65 c0 -13 -80 -13 -100 0 -11 7 2 10 43 10 31 0 57 -4 57 -10z
m-250 -30 c-6 -11 -16 -20 -22 -20 -6 0 -3 9 7 20 10 11 20 20 22 20 2 0 -1
-9 -7 -20z m-673 -92 c-3 -7 -5 -2 -5 12 0 14 2 19 5 13 2 -7 2 -19 0 -25z
m523 -30 c0 -4 -4 -8 -9 -8 -6 0 -12 4 -15 8 -3 5 1 9 9 9 8 0 15 -4 15 -9z
m115 2 c3 -5 1 -10 -4 -10 -6 0 -11 5 -11 10 0 6 2 10 4 10 3 0 8 -4 11 -10z
m-48 -24 c16 4 28 2 34 -7 14 -23 11 -42 -7 -35 -8 3 -12 2 -9 -4 3 -6 1 -10
-4 -10 -6 0 -11 5 -11 10 0 6 -4 10 -10 10 -5 0 -11 -15 -11 -32 -1 -32 -2
-32 -10 7 -9 44 -10 87 -2 68 3 -8 14 -11 30 -7z m-70 -33 c-3 -10 -5 -4 -5
12 0 17 2 24 5 18 2 -7 2 -21 0 -30z m133 28 c0 -5 3 -18 6 -28 5 -16 4 -16
-10 1 -18 23 -20 36 -6 36 6 0 10 -4 10 -9z m-213 -33 c-3 -8 -6 -5 -6 6 -1
11 2 17 5 13 3 -3 4 -12 1 -19z m-577 -28 c0 -5 -5 -10 -11 -10 -5 0 -7 5 -4
10 3 6 8 10 11 10 2 0 4 -4 4 -10z"/>
<path d="M1344 1663 c-9 -34 5 -55 44 -65 33 -9 44 -28 17 -28 -8 0 -15 -4
-15 -10 0 -13 17 -13 25 0 7 11 72 3 90 -10 6 -4 29 -11 52 -15 46 -7 60 -19
45 -38 -5 -7 -12 -24 -16 -39 -5 -21 -2 -28 13 -33 11 -3 27 -18 37 -33 9 -15
23 -31 31 -35 21 -13 15 -27 -12 -27 -14 0 -25 -4 -25 -8 0 -10 113 -59 150
-65 14 -2 -4 -5 -40 -6 -88 -2 -238 -19 -277 -32 -21 -7 -34 -18 -34 -30 -1
-10 -2 -24 -3 -31 -1 -6 6 -14 14 -16 13 -5 13 -3 1 11 -12 15 -8 19 35 38 27
12 92 28 144 37 83 13 120 13 285 2 105 -7 192 -16 195 -20 3 -4 27 -14 53
-23 37 -13 53 -14 72 -5 l25 11 0 249 0 248 -95 -1 c-52 -1 -95 -5 -95 -10 0
-5 5 -9 10 -9 6 0 10 -7 10 -15 0 -17 -25 -21 -35 -5 -3 5 -15 0 -27 -12 -19
-19 -28 -20 -122 -15 -107 6 -146 14 -146 28 0 5 17 9 39 9 22 0 44 6 51 15
11 13 -17 15 -239 15 l-251 0 -6 -27z m396 -3 c0 -5 -2 -10 -4 -10 -3 0 -8 5
-11 10 -3 6 -1 10 4 10 6 0 11 -4 11 -10z m-35 -43 c30 -48 45 -77 40 -77 -19
0 -105 67 -105 83 0 8 60 3 65 -6z m366 -61 c32 -27 26 -33 -30 -28 -36 4 -38
5 -27 28 14 30 21 30 57 0z m-279 -102 c13 -12 -5 -41 -32 -51 -38 -14 -58 5
-38 36 12 20 57 29 70 15z m286 -3 c16 -1 22 -7 22 -25 0 -39 -53 -45 -116
-14 -20 9 -21 11 -5 27 9 9 30 15 46 15 17 -1 40 -2 53 -3z m-131 -192 c35 -9
47 -9 53 1 5 8 16 9 31 4 l24 -7 -28 -8 c-36 -10 -183 1 -165 12 17 12 31 11
85 -2z"/>
<path d="M28 1063 c7 -3 16 -2 19 1 4 3 -2 6 -13 5 -11 0 -14 -3 -6 -6z"/>
<path d="M1973 923 c9 -2 23 -2 30 0 6 3 -1 5 -18 5 -16 0 -22 -2 -12 -5z"/>
<path d="M1300 890 c-8 -5 -10 -10 -5 -10 6 0 17 5 25 10 8 5 11 10 5 10 -5 0
-17 -5 -25 -10z"/>
<path d="M1040 799 c-17 -13 -18 -17 -5 -10 33 17 51 31 40 31 -5 0 -21 -10
-35 -21z"/>
<path d="M1705 789 c79 -28 194 -90 223 -119 41 -41 53 -34 14 8 -32 35 -155
105 -165 95 -4 -3 -7 -2 -7 4 0 5 -6 10 -12 10 -7 1 -29 4 -48 7 l-35 6 30
-11z"/>
<path d="M2103 650 c6 -16 15 -30 19 -30 5 0 2 14 -7 30 -9 17 -17 30 -19 30
-3 0 1 -13 7 -30z"/>
<path d="M1085 470 c17 -11 37 -20 45 -20 8 1 -1 9 -20 20 -46 25 -63 25 -25
0z"/>
<path d="M1210 390 c0 -19 4 -25 17 -22 7 2 31 -2 53 -8 22 -6 46 -8 52 -4 8
5 -83 38 -119 44 -2 0 -3 -4 -3 -10z"/>
<path d="M1358 363 c7 -3 16 -2 19 1 4 3 -2 6 -13 5 -11 0 -14 -3 -6 -6z"/>
<path d="M1408 353 c6 -2 18 -2 25 0 6 3 1 5 -13 5 -14 0 -19 -2 -12 -5z"/>
<path d="M1460 344 c36 -8 100 -9 100 -2 0 5 -26 7 -57 7 -32 -1 -51 -3 -43
-5z"/>
<path d="M2227 142 c-11 -74 -17 -136 -14 -139 12 -11 41 182 36 237 -3 21
-11 -16 -22 -98z"/>
</g>
</svg>
