<?xml version="1.0" standalone="no"?>
<!DOCTYPE svg PUBLIC "-//W3C//DTD SVG 20010904//EN"
 "http://www.w3.org/TR/2001/REC-SVG-20010904/DTD/svg10.dtd">
<svg version="1.0" xmlns="http://www.w3.org/2000/svg"
 width="225.000000pt" height="150.000000pt" viewBox="0 0 225.000000 150.000000"
 preserveAspectRatio="xMidYMid meet">

<g transform="translate(0.000000,150.000000) scale(0.100000,-0.100000)"
fill="#000000" stroke="none">
<path d="M600 1480 c-6 -10 -26 -22 -45 -26 -19 -3 -35 -12 -35 -19 0 -7 -6
-16 -12 -18 -8 -3 -6 -6 5 -6 10 -1 17 -9 17 -22 0 -17 4 -20 23 -14 54 16
166 35 210 35 42 0 49 3 57 25 5 14 16 28 24 31 26 10 80 -15 129 -59 43 -40
47 -48 47 -91 0 -26 -5 -56 -11 -68 -16 -30 0 -36 21 -8 14 19 21 22 32 12 8
-6 29 -9 49 -6 52 9 119 -12 119 -37 0 -24 -68 -58 -120 -60 l-35 -1 35 -10
c19 -5 52 -9 73 -9 20 1 37 -3 37 -9 0 -5 7 -10 15 -10 8 0 15 5 15 10 0 6 23
10 51 10 59 0 58 -17 -2 -26 -35 -6 -40 -10 -35 -28 3 -12 6 -25 6 -30 0 -9
119 0 129 10 3 3 -3 20 -13 37 -10 18 -27 56 -37 85 -10 29 -27 65 -39 79 -11
14 -20 34 -20 44 0 16 -8 18 -56 18 -47 -1 -57 -4 -63 -22 l-8 -21 -11 21 c-7
12 -21 21 -37 21 -33 0 -65 29 -65 59 0 12 4 23 8 23 11 0 92 81 92 92 0 4
-121 8 -270 8 -257 0 -270 -1 -280 -20z"/>
<path d="M1170 1488 c0 -7 6 -25 14 -40 23 -44 11 -68 -36 -68 -51 0 -46 -21
8 -33 47 -9 85 -2 78 16 -2 7 9 20 25 30 17 10 51 38 77 62 l47 45 -107 0
c-78 0 -106 -3 -106 -12z"/>
<path d="M218 1383 c8 -78 34 -94 45 -29 8 50 -1 76 -28 76 -21 0 -22 -3 -17
-47z"/>
<path d="M2090 1420 c0 -16 -49 -23 -65 -10 -8 6 -19 9 -25 5 -18 -11 -11 -24
18 -28 22 -3 21 -4 -9 -6 -20 0 -42 -7 -48 -15 -9 -11 -5 -15 26 -20 109 -19
111 -19 178 12 36 17 65 33 65 36 0 3 -13 12 -30 21 -32 17 -110 21 -110 5z"/>
<path d="M458 1402 c-16 -2 -28 -8 -28 -14 0 -6 11 -7 27 -3 47 11 47 23 1 17z"/>
<path d="M305 1360 c-10 -11 -16 -21 -14 -23 2 -1 13 -7 24 -13 11 -7 19 -21
18 -31 -3 -22 33 -43 72 -43 28 0 30 8 13 45 -9 19 -9 28 0 37 18 18 14 27 -7
21 -11 -3 -30 2 -43 11 -29 21 -41 20 -63 -4z"/>
<path d="M466 1361 c-4 -5 3 -7 14 -4 23 6 26 13 6 13 -8 0 -17 -4 -20 -9z"/>
<path d="M1260 1360 c-13 -8 -12 -10 3 -10 9 0 17 5 17 10 0 12 -1 12 -20 0z"/>
<path d="M2223 1290 c-17 -20 -29 -27 -44 -23 -16 5 -20 2 -17 -13 3 -18 -3
-19 -75 -16 -50 2 -83 -1 -93 -9 -10 -8 -14 -8 -14 0 0 6 -7 11 -16 11 -10 0
-14 -6 -11 -14 4 -10 0 -12 -14 -9 -10 3 -26 2 -35 -1 -15 -6 -14 -9 6 -26 24
-21 46 -27 35 -10 -10 16 15 11 33 -7 13 -13 14 -17 3 -21 -11 -4 -11 -6 0
-13 11 -7 9 -10 -8 -15 -32 -9 -29 -17 10 -30 62 -21 62 -21 60 11 -2 29 -2
29 9 8 6 -13 14 -23 19 -23 4 0 5 10 2 23 -4 21 -4 21 11 3 9 -11 19 -17 23
-13 3 4 -2 16 -12 27 -24 26 -14 25 56 -6 l59 -27 1 -46 c1 -25 1 -50 0 -54
-1 -5 6 -7 16 -5 16 3 18 18 21 127 l3 123 -30 -4 c-25 -4 -28 -2 -19 9 6 7
18 11 27 8 12 -4 17 3 18 30 2 19 2 35 0 34 -1 0 -12 -13 -24 -29z m-48 -80
c3 -5 1 -10 -4 -10 -6 0 -11 5 -11 10 0 6 2 10 4 10 3 0 8 -4 11 -10z"/>
<path d="M134 1258 l1 -53 40 -1 c47 -1 67 -6 76 -18 12 -16 26 3 23 30 -1 14
-4 27 -6 28 -57 38 -61 39 -70 22 -12 -21 -39 -21 -32 -1 6 15 -11 45 -26 45
-4 0 -7 -24 -6 -52z m90 -13 c-4 -8 -8 -15 -10 -15 -2 0 -4 7 -4 15 0 8 4 15
10 15 5 0 7 -7 4 -15z"/>
<path d="M1848 1223 c7 -3 16 -2 19 1 4 3 -2 6 -13 5 -11 0 -14 -3 -6 -6z"/>
<path d="M1845 1190 c3 -5 13 -10 21 -10 8 0 14 5 14 10 0 6 -9 10 -21 10 -11
0 -17 -4 -14 -10z"/>
<path d="M980 1160 c0 -5 17 -10 38 -9 33 1 34 2 12 9 -36 11 -50 11 -50 0z"/>
<path d="M455 1140 c-3 -5 3 -10 14 -10 12 0 21 5 21 10 0 6 -6 10 -14 10 -8
0 -18 -4 -21 -10z"/>
<path d="M884 1120 c-5 -5 -27 -16 -49 -24 -28 -10 -33 -15 -18 -15 12 -1 25
-5 28 -11 3 -5 15 -10 26 -10 11 0 19 -7 19 -17 0 -10 6 -26 14 -35 11 -15 16
-16 56 -2 24 8 74 16 110 18 79 4 90 9 90 42 0 17 5 24 20 24 11 0 20 4 20 9
0 13 -42 1 -65 -19 -11 -10 -30 -23 -42 -29 -31 -16 -127 -14 -168 3 -34 15
-46 38 -25 51 12 7 13 25 2 25 -4 0 -12 -4 -18 -10z"/>
<path d="M242 1100 c4 -21 61 -25 95 -7 27 15 27 15 -35 18 -51 3 -62 1 -60
-11z"/>
<path d="M660 1086 c0 -13 6 -15 28 -10 33 8 41 14 19 14 -8 0 -22 3 -31 6
-11 4 -16 1 -16 -10z"/>
<path d="M535 1054 c-22 -13 -56 -24 -75 -25 l-35 -1 30 -13 c69 -32 152 -6
139 43 -8 27 -8 26 -59 -4z"/>
<path d="M190 1035 c-39 -22 -50 -45 -21 -45 26 0 64 33 60 51 -3 13 -10 12
-39 -6z"/>
<path d="M825 1008 c-33 -23 -52 -29 -105 -31 -36 -1 -80 2 -99 7 -26 6 -32 5
-29 -5 3 -9 26 -16 60 -19 30 -3 61 -10 69 -17 12 -9 30 -9 84 2 39 8 71 15
72 15 4 0 -4 71 -8 74 -2 2 -22 -10 -44 -26z"/>
<path d="M333 1023 c9 -2 23 -2 30 0 6 3 -1 5 -18 5 -16 0 -22 -2 -12 -5z"/>
<path d="M1395 1001 c3 -6 20 -18 38 -27 l31 -17 -16 24 c-15 23 -68 43 -53
20z"/>
<path d="M65 980 c-18 -8 -18 -9 5 -9 14 0 32 4 40 9 12 8 12 10 -5 9 -11 0
-29 -4 -40 -9z"/>
<path d="M520 983 c-13 -3 -39 -18 -58 -34 -41 -36 -68 -43 -170 -44 -76 0
-82 -1 -80 -20 3 -17 10 -19 53 -17 37 2 46 0 35 -7 -12 -8 -7 -11 20 -11 59
0 93 15 150 69 30 28 63 51 73 51 9 0 17 5 17 10 0 6 -3 9 -7 9 -5 -1 -19 -4
-33 -6z"/>
<path d="M2000 960 c-12 -7 -12 -12 -3 -21 15 -15 26 -7 21 15 -2 11 -7 13
-18 6z"/>
<path d="M1149 935 c-50 -32 -151 -42 -203 -20 -32 13 -40 14 -47 3 -6 -8 -3
-14 8 -17 13 -2 13 -5 2 -12 -21 -12 51 -39 107 -39 53 0 153 26 173 45 9 9
11 20 5 38 l-9 25 -36 -23z"/>
<path d="M108 943 c6 -2 18 -2 25 0 6 3 1 5 -13 5 -14 0 -19 -2 -12 -5z"/>
<path d="M1790 924 l-25 -15 30 6 c17 4 34 11 40 16 15 15 -17 10 -45 -7z"/>
<path d="M790 920 c-13 -8 -13 -10 2 -10 9 0 20 5 23 10 8 13 -5 13 -25 0z"/>
<path d="M727 897 c-16 -42 -185 -77 -253 -54 -33 12 -41 12 -52 1 -7 -8 -23
-11 -41 -8 -16 4 -32 1 -35 -5 -4 -6 0 -11 11 -12 10 0 26 -2 36 -4 9 -2 17 1
17 6 0 16 19 10 44 -16 22 -22 34 -25 99 -25 69 0 74 2 95 29 12 16 39 37 61
47 22 9 42 25 44 36 6 21 -18 25 -26 5z m-197 -97 l25 -8 -25 -1 c-14 0 -32 4
-40 9 -13 9 -13 10 0 9 8 -1 26 -5 40 -9z m77 4 c-3 -3 -12 -4 -19 -1 -8 3 -5
6 6 6 11 1 17 -2 13 -5z"/>
<path d="M1068 823 c6 -2 18 -2 25 0 6 3 1 5 -13 5 -14 0 -19 -2 -12 -5z"/>
<path d="M950 811 c0 -5 -21 -23 -47 -40 -42 -28 -54 -31 -128 -31 -56 0 -87
5 -101 15 -24 18 -54 21 -36 3 7 -7 12 -22 12 -35 0 -60 233 -53 299 9 20 18
30 55 12 44 -4 -3 -6 6 -3 19 2 14 2 25 -2 25 -3 0 -6 -4 -6 -9z m-40 -77 c0
-17 -77 -34 -147 -32 l-78 1 80 7 c44 4 91 12 105 18 29 12 40 14 40 6z"/>
<path d="M1430 688 c0 -18 5 -28 15 -28 19 0 19 11 0 36 -14 18 -14 18 -15 -8z"/>
<path d="M309 599 c-21 -8 -26 -15 -21 -31 4 -15 1 -19 -9 -16 -8 3 -13 11
-11 18 3 15 -36 4 -60 -18 -71 -61 82 -83 180 -26 36 21 43 30 40 52 -3 24 -7
27 -48 29 -25 1 -57 -3 -71 -8z"/>
<path d="M1600 558 c0 -6 8 -17 18 -24 16 -13 16 -13 0 -14 -10 0 -18 -5 -18
-10 0 -7 6 -7 19 0 21 10 51 4 51 -11 0 -5 -5 -9 -11 -9 -5 0 -8 -4 -5 -9 3
-5 -2 -8 -12 -7 -9 0 -16 -5 -14 -13 1 -7 -3 -20 -10 -28 -11 -13 -13 -13 -19
4 -6 13 -8 8 -8 -17 0 -19 3 -30 7 -25 4 6 27 25 51 42 40 29 46 31 65 18 22
-16 46 -20 46 -7 0 4 -18 18 -39 31 -22 13 -44 34 -49 46 -11 24 -72 52 -72
33z"/>
<path d="M1357 513 c18 -2 50 -2 70 0 21 2 7 4 -32 4 -38 0 -55 -2 -38 -4z"/>
<path d="M435 502 c-13 -9 -16 -42 -4 -42 11 0 22 25 17 39 -1 6 -7 7 -13 3z"/>
<path d="M478 498 c9 -9 15 -9 24 0 9 9 7 12 -12 12 -19 0 -21 -3 -12 -12z"/>
<path d="M620 500 l-25 -8 28 -1 c15 -1 27 4 27 9 0 6 -1 10 -2 9 -2 -1 -14
-5 -28 -9z"/>
<path d="M1478 503 c7 -3 16 -2 19 1 4 3 -2 6 -13 5 -11 0 -14 -3 -6 -6z"/>
<path d="M517 493 c-13 -12 -7 -23 13 -23 13 0 18 -5 14 -15 -7 -18 7 -20 24
-3 14 14 16 32 3 24 -5 -3 -11 1 -15 9 -6 15 -28 20 -39 8z"/>
<path d="M106 475 c-11 -8 -16 -18 -13 -22 4 -3 7 -3 7 2 0 4 9 0 19 -9 19
-17 20 -17 31 3 20 38 -7 54 -44 26z m44 1 c0 -2 -7 -9 -15 -16 -13 -11 -14
-10 -9 4 5 14 24 23 24 12z"/>
<path d="M345 469 c-4 -6 -4 -13 -1 -16 8 -8 36 5 36 17 0 13 -27 13 -35 -1z"/>
<path d="M1253 425 c0 -27 2 -38 4 -22 2 15 2 37 0 50 -2 12 -4 0 -4 -28z"/>
<path d="M302 418 c6 -16 48 -43 48 -30 0 13 -28 42 -42 42 -5 0 -8 -5 -6 -12z"/>
<path d="M468 383 c7 -3 16 -2 19 1 4 3 -2 6 -13 5 -11 0 -14 -3 -6 -6z"/>
<path d="M515 371 l-40 -18 88 -8 88 -7 -6 -40 -7 -40 26 18 c39 25 49 49 34
76 -7 13 -17 26 -23 30 -19 14 -120 7 -160 -11z"/>
<path d="M120 370 c-9 -6 -10 -10 -3 -10 6 0 15 5 18 10 8 12 4 12 -15 0z"/>
<path d="M78 353 c7 -3 16 -2 19 1 4 3 -2 6 -13 5 -11 0 -14 -3 -6 -6z"/>
<path d="M1212 351 c-10 -6 -10 -10 3 -21 13 -11 15 -9 15 9 0 24 0 24 -18 12z"/>
<path d="M922 325 c-7 -8 -9 -15 -4 -15 5 0 15 7 22 15 16 19 -1 19 -18 0z"/>
<path d="M1548 323 c7 -3 16 -2 19 1 4 3 -2 6 -13 5 -11 0 -14 -3 -6 -6z"/>
<path d="M234 288 c-14 -17 -15 -20 -2 -9 9 7 22 10 27 6 7 -3 8 0 5 9 -8 20
-7 20 -30 -6z"/>
<path d="M820 299 c0 -5 5 -7 10 -4 6 3 10 8 10 11 0 2 -4 4 -10 4 -5 0 -10
-5 -10 -11z"/>
<path d="M280 280 c0 -5 4 -10 9 -10 6 0 13 5 16 10 3 6 -1 10 -9 10 -9 0 -16
-4 -16 -10z"/>
<path d="M453 261 c-50 -8 -63 -18 -43 -31 9 -6 19 -5 24 0 6 6 39 10 76 10
75 0 109 14 60 24 -37 7 -57 6 -117 -3z"/>
<path d="M733 244 c-7 -18 13 -34 42 -34 20 1 20 1 1 15 -11 8 -14 15 -8 15 7
0 12 5 12 10 0 16 -40 11 -47 -6z"/>
<path d="M810 240 c0 -11 7 -20 15 -20 8 0 15 6 15 14 0 8 -7 16 -15 20 -10 4
-15 -1 -15 -14z"/>
<path d="M1755 250 c-3 -5 -1 -10 4 -10 6 0 11 5 11 10 0 6 -2 10 -4 10 -3 0
-8 -4 -11 -10z"/>
<path d="M177 242 c-9 -2 -15 -7 -12 -12 3 -5 -6 -17 -20 -26 -23 -15 -38 -43
-15 -29 16 10 12 -22 -5 -38 -14 -14 -11 -27 7 -27 5 0 6 5 3 10 -3 6 -1 10 4
10 6 0 11 -6 11 -12 0 -7 8 3 18 22 13 27 23 35 45 35 28 1 62 36 55 57 -4 12
-56 18 -91 10z"/>
<path d="M700 229 c0 -24 17 -43 45 -47 18 -3 17 0 -8 25 -15 16 -24 32 -20
36 3 4 1 7 -5 7 -7 0 -12 -9 -12 -21z"/>
<path d="M878 240 c17 -20 16 -70 -3 -70 -17 0 -20 -16 -6 -25 13 -7 31 27 31
58 0 14 -8 31 -17 38 -15 11 -16 11 -5 -1z"/>
<path d="M630 211 c-19 -16 -32 -32 -28 -36 3 -4 17 5 29 19 12 14 29 26 36
26 7 0 13 5 13 10 0 17 -14 11 -50 -19z"/>
<path d="M850 222 c0 -16 -5 -20 -17 -16 -15 5 -16 4 -3 -5 37 -26 69 0 35 29
-13 10 -15 9 -15 -8z"/>
<path d="M931 195 c-2 -58 -44 -102 -144 -150 -51 -24 -87 -44 -81 -45 22 0
179 78 206 103 33 30 44 70 30 100 -10 21 -11 20 -11 -8z"/>
<path d="M366 188 c-9 -35 -7 -41 9 -28 8 6 19 9 24 5 7 -3 8 0 5 9 -3 9 -10
13 -15 10 -5 -3 -6 2 -3 10 3 9 2 16 -4 16 -5 0 -12 -10 -16 -22z"/>
<path d="M783 165 c-6 -14 -8 -27 -4 -30 7 -4 31 36 31 50 0 14 -17 1 -27 -20z"/>
<path d="M670 161 c-5 -11 -7 -26 -4 -34 3 -8 1 -18 -5 -22 -6 -3 -14 0 -17 9
-3 8 -12 12 -20 9 -9 -3 -14 2 -14 16 0 12 -5 21 -11 21 -7 0 -9 -10 -5 -26 5
-17 3 -23 -4 -19 -16 10 -12 -1 7 -16 14 -12 16 -12 8 0 -6 11 -4 13 11 7 34
-14 49 -11 59 12 10 23 25 30 25 12 0 -17 14 -11 28 11 12 18 11 19 -6 10 -22
-12 -33 -5 -25 15 8 21 -15 17 -27 -5z"/>
<path d="M0 164 c0 -6 15 -28 33 -50 18 -21 45 -56 61 -77 15 -21 30 -36 33
-33 3 3 -20 38 -52 78 -75 94 -75 94 -75 82z"/>
<path d="M572 150 c0 -14 2 -19 5 -12 2 6 2 18 0 25 -3 6 -5 1 -5 -13z"/>
<path d="M805 120 c-3 -5 -2 -10 4 -10 5 0 13 5 16 10 3 6 2 10 -4 10 -5 0
-13 -4 -16 -10z"/>
<path d="M690 105 c0 -7 -6 -16 -12 -18 -7 -3 -1 -6 13 -6 32 -1 46 25 18 32
-12 3 -19 0 -19 -8z"/>
<path d="M533 87 c10 -6 21 -26 26 -42 9 -29 9 -29 10 -4 1 24 -25 59 -44 59
-5 0 -1 -6 8 -13z"/>
<path d="M300 48 c-39 -36 -42 -42 -25 -46 10 -2 21 1 23 7 2 7 15 25 29 42
38 45 23 43 -27 -3z"/>
<path d="M1582 25 c0 -17 2 -22 5 -12 2 9 2 23 0 30 -3 6 -5 -1 -5 -18z"/>
<path d="M630 30 c0 -13 11 -13 30 0 12 8 11 10 -7 10 -13 0 -23 -4 -23 -10z"/>
<path d="M800 20 c-35 -19 -35 -19 -8 -20 17 0 31 7 38 20 13 24 14 24 -30 0z"/>
</g>
</svg>
