<?xml version="1.0" standalone="no"?>
<!DOCTYPE svg PUBLIC "-//W3C//DTD SVG 20010904//EN"
 "http://www.w3.org/TR/2001/REC-SVG-20010904/DTD/svg10.dtd">
<svg version="1.0" xmlns="http://www.w3.org/2000/svg"
 width="225.000000pt" height="169.000000pt" viewBox="0 0 225.000000 169.000000"
 preserveAspectRatio="xMidYMid meet">

<g transform="translate(0.000000,169.000000) scale(0.100000,-0.100000)"
fill="#000000" stroke="none">
<path d="M1732 1670 c0 -14 2 -19 5 -12 2 6 2 18 0 25 -3 6 -5 1 -5 -13z"/>
<path d="M1140 1576 c0 -18 16 -29 30 -21 13 8 1 35 -16 35 -8 0 -14 -6 -14
-14z"/>
<path d="M1555 1549 c-10 -15 3 -25 16 -12 7 7 7 13 1 17 -6 3 -14 1 -17 -5z"/>
<path d="M1390 1530 c0 -5 5 -10 10 -10 6 0 10 5 10 10 0 6 -4 10 -10 10 -5 0
-10 -4 -10 -10z"/>
<path d="M1635 1510 c3 -5 14 -10 23 -10 15 0 15 2 2 10 -20 13 -33 13 -25 0z"/>
<path d="M1677 1452 c-21 -23 -22 -33 -3 -26 7 3 21 -2 30 -12 20 -20 40 -7
34 22 -2 13 -10 18 -27 16 -15 -2 -21 0 -17 7 11 17 1 13 -17 -7z"/>
<path d="M1660 1330 c0 -11 2 -20 4 -20 2 0 6 9 9 20 3 11 1 20 -4 20 -5 0 -9
-9 -9 -20z"/>
<path d="M1635 1300 c-3 -5 -1 -10 4 -10 6 0 11 5 11 10 0 6 -2 10 -4 10 -3 0
-8 -4 -11 -10z"/>
<path d="M1231 1293 c-2 -20 22 -117 31 -127 4 -6 8 1 8 15 0 14 -3 29 -7 33
-5 4 -13 26 -20 49 -6 23 -11 37 -12 30z"/>
<path d="M1335 1260 c3 -5 8 -10 11 -10 2 0 4 5 4 10 0 6 -5 10 -11 10 -5 0
-7 -4 -4 -10z"/>
<path d="M970 1249 c0 -5 5 -7 10 -4 6 3 10 8 10 11 0 2 -4 4 -10 4 -5 0 -10
-5 -10 -11z"/>
<path d="M1664 1245 c-19 -14 -18 -14 4 -15 13 0 22 -6 22 -16 0 -8 5 -12 10
-9 6 3 10 0 10 -8 0 -8 7 -17 15 -21 12 -4 15 3 15 30 0 19 -4 33 -9 29 -5 -3
-16 2 -24 10 -19 18 -19 18 -43 0z"/>
<path d="M1295 1210 c-3 -5 -1 -10 4 -10 6 0 11 5 11 10 0 6 -2 10 -4 10 -3 0
-8 -4 -11 -10z"/>
<path d="M1191 1183 c-21 -11 -29 -19 -20 -21 8 -3 20 -10 28 -16 12 -9 13 -8
8 7 -3 9 -2 17 3 17 9 0 14 -15 11 -33 -1 -5 3 -6 9 -2 6 4 7 13 1 23 -4 9 -6
23 -4 30 6 15 5 15 -36 -5z"/>
<path d="M1803 1165 c0 -22 2 -30 4 -17 2 12 2 30 0 40 -3 9 -5 -1 -4 -23z"/>
<path d="M1145 1150 c11 -17 -29 -52 -44 -37 -6 6 -11 18 -11 27 0 13 -2 13
-9 0 -7 -10 -4 -18 11 -28 15 -11 17 -16 7 -23 -13 -7 -11 -13 19 -70 1 -4 -4
-9 -13 -13 -9 -3 -13 -2 -10 3 3 5 1 12 -5 16 -5 3 -10 1 -10 -5 0 -11 -20 -9
-80 9 l-35 10 22 -18 c19 -16 20 -20 7 -25 -10 -4 -13 -2 -8 7 5 8 2 7 -9 -2
-18 -14 -23 -26 -8 -17 10 7 25 -23 22 -43 -4 -22 26 10 32 35 3 14 5 15 6 3
0 -9 8 -20 17 -23 12 -4 14 -1 9 13 -5 17 -2 19 22 16 15 -2 34 -4 41 -4 17
-1 15 -41 -2 -41 -8 0 -18 -9 -21 -20 -5 -16 -10 -18 -25 -10 -27 14 -34 12
-20 -5 10 -12 10 -19 2 -27 -16 -16 -15 -25 4 -32 8 -3 12 -2 9 3 -3 6 2 14
11 19 8 5 21 19 27 32 7 13 23 27 37 31 14 4 19 7 11 8 -8 1 -11 7 -6 19 4 9
8 22 9 27 1 6 5 16 10 23 5 9 -1 23 -18 41 -14 15 -26 30 -26 34 0 14 48 53
61 49 19 -6 9 3 -20 18 -17 9 -21 9 -16 0z m15 -124 c0 -3 -4 -8 -10 -11 -5
-3 -10 -1 -10 4 0 6 5 11 10 11 6 0 10 -2 10 -4z"/>
<path d="M1329 1148 c-7 -28 -5 -38 7 -38 16 0 19 26 4 35 -5 3 -10 5 -11 3z"/>
<path d="M1357 1088 c-18 -35 -23 -54 -16 -59 8 -5 8 -8 0 -13 -6 -4 -15 -5
-20 -1 -5 3 -12 1 -15 -4 -3 -5 4 -11 15 -14 16 -4 20 -11 16 -26 -3 -12 -1
-24 4 -27 5 -3 7 -10 3 -15 -3 -5 -10 -6 -16 -3 -7 5 -9 -2 -4 -20 5 -21 3
-26 -11 -27 -16 0 -15 -2 2 -9 11 -5 14 -9 8 -9 -18 -1 -16 -21 1 -21 17 0 28
52 14 61 -6 4 -2 11 10 18 32 17 33 14 28 -35 -4 -28 -2 -43 4 -39 6 3 10 2
10 -4 0 -5 -6 -12 -12 -14 -8 -4 -7 -6 4 -6 9 -1 18 -8 20 -17 2 -14 6 -13 22
5 15 17 16 20 4 16 -21 -8 -33 12 -18 30 7 8 9 15 4 15 -5 0 -2 5 6 10 13 9
13 11 0 20 -8 5 -11 10 -6 10 5 0 2 7 -5 16 -12 15 -11 19 9 32 12 8 22 21 22
28 0 8 5 14 10 14 6 0 10 7 10 15 0 8 5 15 10 15 6 0 10 5 10 10 0 6 -6 9 -12
8 -7 -2 -13 4 -12 13 1 8 -12 23 -27 32 -27 15 -29 15 -30 -1 -1 -9 0 -24 1
-32 1 -12 -2 -12 -16 2 -16 15 -16 21 -4 43 7 14 11 27 8 30 -2 3 -17 -19 -31
-47z m28 -91 c5 -13 3 -16 -8 -11 -17 6 -28 50 -19 73 4 11 8 7 13 -14 4 -16
10 -38 14 -48z m-10 -39 c-19 -11 -30 -5 -21 11 4 6 14 7 22 4 15 -5 14 -7 -1
-15z"/>
<path d="M1042 1107 c0 -7 -4 -23 -8 -37 l-7 -25 22 22 c11 12 21 26 21 32 0
13 -27 21 -28 8z"/>
<path d="M705 1090 c-3 -5 -1 -10 4 -10 6 0 11 5 11 10 0 6 -2 10 -4 10 -3 0
-8 -4 -11 -10z"/>
<path d="M880 1067 c0 -8 16 -19 36 -25 45 -14 42 6 -4 25 -27 11 -32 11 -32
0z"/>
<path d="M1196 1057 c-16 -12 -17 -15 -3 -20 10 -4 17 1 20 14 6 23 6 23 -17
6z"/>
<path d="M2196 1051 c-17 -19 -17 -19 3 -14 12 3 21 12 21 19 0 18 -4 18 -24
-5z"/>
<path d="M845 1040 c-3 -6 1 -7 9 -4 18 7 21 14 7 14 -6 0 -13 -4 -16 -10z"/>
<path d="M1040 1040 c-9 -6 -10 -10 -3 -10 6 0 15 5 18 10 8 12 4 12 -15 0z"/>
<path d="M1223 1023 c4 -3 2 -12 -4 -19 -12 -15 8 -31 22 -17 12 12 1 43 -14
43 -6 0 -7 -3 -4 -7z"/>
<path d="M840 999 c0 -5 5 -7 10 -4 6 3 10 8 10 11 0 2 -4 4 -10 4 -5 0 -10
-5 -10 -11z"/>
<path d="M1169 1008 c-7 -31 -6 -35 12 -31 21 6 21 24 1 31 -7 2 -12 2 -13 0z"/>
<path d="M1920 982 c-45 -15 -201 -77 -237 -95 -36 -17 -41 -23 -32 -39 6 -10
7 -28 4 -38 -7 -21 -39 -27 -50 -10 -3 5 -22 7 -42 4 -35 -6 -35 -5 -31 25 3
17 1 31 -4 31 -4 0 -8 -12 -8 -26 0 -14 -4 -23 -9 -19 -6 3 -15 -3 -21 -12
-10 -16 -11 -16 -6 -1 3 10 1 20 -4 23 -6 4 -10 -1 -10 -10 0 -11 -6 -15 -19
-10 -10 3 -23 -1 -30 -9 -9 -11 -19 -12 -37 -6 -15 6 -24 6 -24 0 0 -6 -5 -10
-11 -10 -6 0 -9 7 -6 14 4 10 1 13 -9 9 -8 -3 -12 -13 -9 -23 3 -11 -2 -20
-17 -28 l-23 -11 23 0 c12 -1 31 -10 42 -21 24 -24 25 -30 5 -30 -18 0 -38
-43 -23 -48 14 -6 -12 -32 -33 -32 -10 0 -21 5 -24 11 -5 6 -13 2 -22 -11 -12
-16 -18 -18 -29 -9 -25 21 3 89 37 89 11 0 17 5 14 10 -3 6 -1 10 6 10 7 0 9
3 6 6 -4 4 -14 1 -22 -6 -12 -10 -19 -10 -27 -2 -15 15 -52 16 -43 2 3 -5 -3
-10 -15 -10 -12 0 -24 9 -28 21 -5 11 -10 19 -13 17 -2 -2 -12 4 -20 12 -14
13 -14 16 3 30 29 23 14 50 -28 50 -39 0 -39 1 -19 -36 13 -26 13 -30 -4 -48
-11 -10 -24 -15 -31 -11 -9 6 -9 10 1 16 10 6 11 9 2 9 -7 0 -13 9 -13 21 0
11 5 17 10 14 6 -4 5 5 -2 20 -8 18 -14 22 -20 13 -6 -10 -8 -8 -8 5 0 9 -4
17 -10 17 -5 0 -9 -3 -9 -7 1 -5 1 -14 0 -22 -1 -17 -16 -5 -16 12 0 17 -62
21 -78 5 -18 -16 -10 -45 14 -51 15 -4 17 -2 9 13 -7 13 -7 21 1 25 16 10 23
-2 25 -41 0 -19 -2 -30 -6 -24 -8 13 -43 20 -57 12 -6 -4 -13 -16 -15 -27 -2
-17 4 -21 37 -26 35 -5 36 -6 10 -8 l-30 -2 25 -11 c14 -6 29 -10 34 -9 6 1
20 0 33 -3 15 -4 20 -11 16 -22 -5 -13 -2 -15 18 -9 21 7 22 6 10 -9 -16 -19
-1 -22 18 -3 10 10 12 9 9 -3 -2 -8 2 -14 7 -15 6 0 15 -3 20 -6 6 -4 18 -5
28 -4 15 3 16 1 6 -11 -6 -8 -14 -12 -17 -9 -3 3 -12 -1 -21 -9 -9 -8 -39 -26
-68 -40 -55 -28 -58 -36 -32 -102 5 -15 14 -89 20 -163 6 -80 15 -138 21 -140
6 -2 0 -12 -13 -22 l-24 -19 27 0 c27 0 231 102 508 253 84 46 146 74 148 67
3 -8 8 -8 18 1 8 7 17 9 21 5 4 -3 -2 -13 -13 -21 -17 -14 -15 -15 27 -12 25
2 51 7 57 11 7 4 12 3 12 -3 0 -5 -4 -13 -10 -16 -25 -16 -3 -22 75 -21 61 1
85 5 85 14 0 8 5 9 18 3 9 -5 28 -13 42 -19 14 -5 36 -15 50 -21 24 -11 24
-11 -7 -6 -27 4 -33 1 -32 -13 0 -22 36 -95 72 -149 30 -43 62 -146 52 -163
-3 -6 1 -10 9 -10 9 0 16 5 16 11 0 8 4 8 15 -1 18 -15 36 -5 29 18 -2 9 1 7
7 -5 12 -23 41 -32 36 -12 -1 6 -14 25 -29 43 -29 31 -38 62 -15 51 6 -4 3 1
-7 9 -11 9 -24 16 -29 16 -4 0 -7 9 -5 20 2 13 -8 29 -27 45 -30 24 -30 24 -6
25 l24 0 -28 24 -28 24 24 4 c23 3 23 4 -8 21 -34 18 -46 41 -15 30 15 -6 15
-5 4 10 -8 9 -11 21 -7 28 5 8 -1 9 -24 4 -20 -4 -31 -3 -31 4 0 6 -10 11 -22
11 -19 0 -20 2 -8 10 12 8 10 10 -10 11 -14 1 -33 1 -42 0 -16 -2 -16 0 -3 26
8 15 14 48 13 72 l-1 44 -19 -23 c-20 -25 -21 -21 -9 32 5 21 6 37 2 36 -20
-2 -31 4 -31 19 0 9 3 13 6 10 15 -14 44 16 55 56 l11 42 18 -44 c17 -44 58
-96 68 -87 2 3 -3 66 -13 140 -18 129 -20 138 -57 186 -21 28 -38 55 -38 60 0
13 -13 18 -30 12z m-925 -200 c-3 -3 -11 0 -18 7 -9 10 -8 11 6 5 10 -3 15 -9
12 -12z m-15 -16 c0 -3 -4 -8 -10 -11 -5 -3 -10 -1 -10 4 0 6 5 11 10 11 6 0
10 -2 10 -4z m940 -196 c0 -5 -5 -10 -11 -10 -5 0 -7 5 -4 10 3 6 8 10 11 10
2 0 4 -4 4 -10z"/>
<path d="M917 973 c-10 -9 -8 -55 2 -71 12 -19 45 -11 50 13 3 17 1 17 -12 6
-23 -18 -40 -4 -35 30 5 31 5 32 -5 22z"/>
<path d="M760 959 c0 -5 5 -7 12 -3 8 5 9 2 5 -9 -4 -11 -1 -17 8 -17 8 0 18
0 22 -1 4 0 9 5 12 12 2 8 -2 10 -13 6 -9 -4 -15 -3 -12 2 3 5 -1 12 -10 15
-21 8 -24 8 -24 -5z"/>
<path d="M1490 963 c8 -3 21 -10 28 -16 9 -7 11 -6 6 7 -3 9 -16 16 -28 15
-14 0 -16 -2 -6 -6z"/>
<path d="M1236 923 c-6 -14 -5 -15 5 -6 7 7 10 15 7 18 -3 3 -9 -2 -12 -12z"/>
<path d="M850 916 c0 -2 7 -7 16 -10 8 -3 12 -2 9 4 -6 10 -25 14 -25 6z"/>
<path d="M1520 903 c0 -15 27 -36 39 -29 5 4 13 -3 16 -15 6 -17 9 -19 16 -8
13 21 11 29 -7 29 -9 0 -12 5 -8 13 5 7 1 6 -10 -3 -16 -13 -20 -12 -32 5 -8
10 -14 14 -14 8z"/>
<path d="M1193 880 c2 -37 17 -49 43 -36 32 18 56 44 44 51 -5 3 -10 2 -10 -3
0 -13 -63 -13 -72 1 -4 7 -6 1 -5 -13z"/>
<path d="M840 843 c0 -5 5 -15 10 -23 7 -12 9 -10 7 8 -1 19 -17 33 -17 15z"/>
<path d="M1280 819 c0 -5 -6 -7 -12 -3 -7 4 -10 3 -5 -1 4 -5 16 -10 27 -12
14 -2 18 2 14 12 -7 17 -24 20 -24 4z"/>
<path d="M1213 785 c-6 -14 -7 -25 -2 -25 4 0 6 -7 2 -16 -4 -12 -2 -15 8 -12
8 3 14 14 14 25 0 12 3 25 8 29 11 11 8 24 -5 24 -7 0 -18 -11 -25 -25z"/>
<path d="M795 780 c-4 -6 -1 -9 7 -8 7 2 12 -2 11 -9 -2 -7 4 -10 13 -6 8 3
14 6 12 7 -2 1 -10 7 -20 14 -11 9 -18 10 -23 2z"/>
<path d="M502 745 c3 -4 2 -24 -3 -47 -7 -28 -6 -44 2 -54 6 -8 9 -24 6 -36
-11 -45 39 -139 73 -137 10 0 11 2 3 6 -9 3 -11 14 -7 31 4 15 3 24 -1 19 -12
-10 -34 45 -24 59 17 21 -2 134 -22 134 -5 0 -9 7 -9 15 0 8 -5 15 -12 15 -6
0 -9 -2 -6 -5z"/>
<path d="M30 711 c0 -8 50 -34 56 -29 1 2 -11 11 -27 20 -16 9 -29 14 -29 9z"/>
<path d="M132 664 c-13 -6 -20 -14 -15 -17 8 -5 50 20 42 26 -2 2 -15 -2 -27
-9z"/>
<path d="M2223 548 c-11 -13 -28 -27 -37 -33 -20 -12 -30 -73 -15 -92 7 -7 25
-13 41 -13 22 0 29 -4 25 -15 -4 -8 -2 -17 3 -20 6 -4 10 33 10 94 0 56 -1
101 -3 101 -2 0 -13 -10 -24 -22z"/>
<path d="M365 310 c-3 -5 -2 -10 4 -10 5 0 13 5 16 10 3 6 2 10 -4 10 -5 0
-13 -4 -16 -10z"/>
<path d="M1805 301 c-6 -11 97 -30 109 -20 4 4 5 12 2 18 -9 13 -103 15 -111
2z"/>
</g>
</svg>
