<?xml version="1.0" standalone="no"?>
<!DOCTYPE svg PUBLIC "-//W3C//DTD SVG 20010904//EN"
 "http://www.w3.org/TR/2001/REC-SVG-20010904/DTD/svg10.dtd">
<svg version="1.0" xmlns="http://www.w3.org/2000/svg"
 width="225.000000pt" height="150.000000pt" viewBox="0 0 225.000000 150.000000"
 preserveAspectRatio="xMidYMid meet">

<g transform="translate(0.000000,150.000000) scale(0.100000,-0.100000)"
fill="#000000" stroke="none">
<path d="M690 1459 c-36 -4 -81 -11 -100 -14 -19 -3 -116 -10 -214 -16 -99 -6
-185 -13 -191 -17 -8 -5 -2 -80 21 -267 18 -143 33 -267 34 -274 0 -10 12 -4
33 17 33 32 69 43 66 20 -3 -28 2 -37 18 -31 10 4 14 2 10 -4 -3 -5 5 -16 18
-23 14 -7 25 -22 25 -32 0 -11 4 -16 10 -13 5 3 7 0 4 -8 -3 -8 0 -18 6 -22 9
-6 9 -10 -1 -17 -11 -7 -11 -11 -1 -15 6 -2 12 -11 12 -19 0 -8 4 -14 8 -14 4
0 9 -11 10 -23 2 -34 -35 -63 -88 -70 l-46 -6 -21 47 c-30 64 -82 125 -102
119 -9 -2 -58 -30 -109 -61 l-92 -57 0 -115 0 -114 151 76 c83 41 152 74 154
72 2 -2 5 -21 7 -43 3 -40 3 -40 -57 -70 -43 -22 -60 -36 -60 -50 0 -25 57
-47 98 -39 19 4 32 1 40 -10 11 -14 42 -11 312 29 165 25 331 46 368 48 l68 2
60 -130 c33 -71 66 -136 74 -144 12 -13 27 -13 87 -4 180 27 774 145 785 156
6 7 14 28 18 47 6 33 -2 46 -110 198 l-116 162 -44 0 c-24 0 -50 -6 -58 -14
-11 -12 -130 -37 -169 -36 -35 1 513 211 615 236 26 6 27 9 27 65 0 32 -2 59
-4 59 -2 0 -122 -40 -267 -89 -210 -71 -479 -150 -518 -151 -3 0 5 -10 19 -21
l25 -21 -28 16 c-33 20 -198 63 -248 65 -30 1 -42 -4 -63 -30 -14 -17 -27 -35
-27 -40 -1 -5 -3 -13 -4 -19 -1 -5 -3 -37 -4 -69 l-1 -59 -47 -10 c-26 -6 -48
-10 -49 -9 -1 1 -34 74 -73 162 -40 88 -79 165 -87 171 -11 9 -21 71 -39 235
-14 123 -28 241 -31 262 -6 41 -2 40 -114 26z m59 -281 c13 -117 23 -220 24
-228 1 -9 -8 -16 -25 -18 -53 -6 -25 -39 36 -44 l39 -3 53 -130 c29 -71 52
-130 51 -131 -1 -2 -56 -10 -122 -18 -120 -16 -183 -20 -155 -9 23 9 29 24 19
51 -7 19 -6 29 7 43 15 17 15 19 2 19 -9 0 -18 6 -21 13 -3 9 -17 13 -39 10
-32 -3 -31 -3 12 16 25 11 44 24 42 30 -1 6 3 11 10 11 6 0 9 3 6 6 -4 3 -15
1 -25 -4 -27 -15 -52 2 -27 17 27 15 13 14 -27 -3 -38 -16 -89 -10 -89 9 0 7
6 15 13 18 6 2 9 7 5 11 -3 4 -15 2 -27 -5 -27 -17 -42 -2 -16 17 19 14 19 14
-5 12 -16 -2 -27 4 -34 18 -6 11 -17 19 -25 16 -8 -3 -20 3 -27 12 -7 10 -15
17 -18 17 -20 -3 -26 1 -26 15 0 15 -2 15 -25 0 -27 -18 -39 -21 -30 -7 3 5
-6 99 -19 207 -14 109 -24 199 -23 200 2 2 400 41 438 43 l26 1 22 -212z
m-185 -421 c-8 -5 -24 -5 -36 -1 l-21 6 23 13 c17 9 27 10 36 1 9 -9 9 -13 -2
-19z m66 8 c-7 -8 -17 -15 -22 -15 -11 0 14 29 26 30 5 0 3 -7 -4 -15z m430
-273 c0 -7 -4 -10 -10 -7 -5 3 -10 16 -10 28 0 18 2 19 10 7 5 -8 10 -21 10
-28z m616 -106 c15 -28 15 -30 -2 -43 -10 -7 -25 -13 -35 -13 -9 0 -92 -14
-184 -31 -91 -16 -174 -28 -183 -25 -15 5 -97 164 -89 172 1 2 18 -4 37 -13
19 -8 44 -19 55 -24 25 -10 105 -15 125 -7 8 4 44 11 79 18 58 11 134 41 128
51 -1 3 11 -9 26 -26 15 -16 35 -43 43 -59z"/>
<path d="M485 1115 c-55 -7 -103 -14 -107 -14 -10 -1 -10 -62 0 -78 4 -7 30
-10 67 -9 79 4 155 -15 217 -53 49 -31 50 -31 45 -9 -3 13 -9 58 -13 101 l-7
77 -51 -1 c-28 -1 -96 -7 -151 -14z"/>
</g>
</svg>
